# Blender v2.78 (sub 0) OBJ File: ''
# www.blender.org
mtllib New3DSXL.mtl
o threeDS_ID17
v 0.158680 0.007185 -0.016047
v 0.141400 0.007185 -0.002371
v 0.158680 -0.004647 -0.016047
v 0.141400 -0.004647 -0.002371
v 0.158680 -0.004647 -0.156748
v 0.158680 -0.004647 -0.174896
v 0.158680 0.007185 -0.156748
v 0.158680 0.007988 -0.159282
v 0.158680 0.007988 -0.174896
v -0.158679 -0.004647 -0.156748
v -0.158680 -0.004647 -0.016047
v -0.158679 0.007185 -0.156748
v -0.158680 0.007185 -0.016047
v 0.158680 -0.004647 -0.016047
v 0.158680 0.007185 -0.016047
v -0.157457 -0.007568 -0.156748
v -0.157457 -0.007568 -0.174896
v 0.157457 -0.007568 -0.156748
v 0.157457 -0.007568 -0.174896
v 0.157457 0.007988 -0.177629
v 0.157457 -0.005524 -0.177629
v -0.157457 0.007988 -0.177629
v -0.157457 -0.005524 -0.177629
v -0.158679 0.007185 -0.174896
v -0.158679 -0.004647 -0.174896
v 0.090615 0.007988 -0.156748
v 0.090615 0.007988 -0.146169
v 0.155000 0.007988 -0.156748
v 0.155000 0.007988 -0.021193
v 0.090615 0.007988 -0.007517
v 0.138958 0.007988 -0.007517
v 0.090615 0.007988 -0.031145
v 0.157457 -0.007568 -0.021193
v -0.157457 -0.007568 -0.021194
v 0.158680 0.017793 -0.174896
v 0.158680 0.017793 -0.159282
v -0.155000 0.017793 -0.177629
v 0.155000 0.017793 -0.177629
v -0.158679 0.008791 -0.159282
v -0.158679 0.017793 -0.159282
v -0.158679 0.008791 -0.174896
v -0.158679 0.017793 -0.174896
v 0.155000 0.007988 -0.156748
v 0.155000 0.017793 -0.156748
v 0.090615 0.007988 -0.156748
v -0.155000 0.017793 -0.156748
v -0.090615 0.007988 -0.156748
v -0.155000 0.007988 -0.156748
v -0.155000 0.020000 -0.174896
v -0.155000 0.020000 -0.159282
v 0.155000 0.020000 -0.174896
v 0.155000 0.020000 -0.159282
v 0.157457 -0.007568 -0.174896
v 0.158680 -0.004647 -0.174896
v 0.157457 -0.007568 -0.156748
v 0.158680 -0.004647 -0.156748
v 0.157457 -0.005524 -0.177629
v 0.157457 -0.007568 -0.174896
v -0.157457 -0.005524 -0.177629
v -0.157457 -0.007568 -0.174896
v -0.158679 -0.004647 -0.174896
v -0.157457 -0.007568 -0.174896
v -0.158679 -0.004647 -0.156748
v -0.157457 -0.007568 -0.156748
v 0.158680 0.007185 -0.016047
v 0.158680 0.007185 -0.156748
v 0.155000 0.007988 -0.021193
v 0.155000 0.007988 -0.156748
v 0.155000 0.007988 -0.021193
v 0.138958 0.007988 -0.007517
v 0.158680 0.007185 -0.016047
v 0.141400 0.007185 -0.002371
v -0.158680 0.007185 -0.016047
v -0.155000 0.007988 -0.021194
v -0.158679 0.007185 -0.156748
v -0.155000 0.007988 -0.156748
v 0.158680 -0.004647 -0.016047
v 0.157457 -0.007568 -0.021193
v 0.158680 -0.004647 -0.156748
v 0.157457 -0.007568 -0.156748
v 0.157457 -0.007568 -0.021193
v 0.158680 -0.004647 -0.016047
v -0.157457 -0.007568 -0.021194
v 0.141400 -0.004647 -0.002371
v 0.000000 -0.004647 -0.002371
v -0.158680 -0.004647 -0.016047
v -0.141400 -0.004647 -0.002371
v -0.158680 -0.004647 -0.016047
v -0.158679 -0.004647 -0.156748
v -0.157457 -0.007568 -0.021194
v -0.157457 -0.007568 -0.156748
v -0.158679 0.008791 -0.174896
v -0.158679 0.008791 -0.159282
v -0.155000 0.007988 -0.156748
v -0.155000 0.017793 -0.156748
v -0.158679 0.008791 -0.159282
v -0.158679 0.017793 -0.159282
v 0.155000 0.007988 -0.156748
v 0.158680 0.007988 -0.159282
v 0.155000 0.017793 -0.156748
v 0.158680 0.017793 -0.159282
v 0.158680 0.017793 -0.174896
v 0.155000 0.020000 -0.174896
v 0.158680 0.017793 -0.159282
v 0.155000 0.020000 -0.159282
v 0.155000 0.020000 -0.174896
v 0.155000 0.017793 -0.177629
v -0.155000 0.020000 -0.174896
v -0.155000 0.017793 -0.177629
v -0.155000 0.020000 -0.174896
v -0.158679 0.017793 -0.174896
v -0.155000 0.020000 -0.159282
v -0.158679 0.017793 -0.159282
v -0.155000 0.020000 -0.159282
v -0.155000 0.017793 -0.156748
v 0.155000 0.020000 -0.159282
v 0.155000 0.017793 -0.156748
v 0.158680 -0.004647 -0.174896
v 0.157457 -0.007568 -0.174896
v 0.157457 -0.005524 -0.177629
v -0.157457 -0.007568 -0.174896
v -0.158679 -0.004647 -0.174896
v -0.157457 -0.005524 -0.177629
v -0.158679 0.008791 -0.159282
v -0.158679 0.007185 -0.156748
v -0.155000 0.007988 -0.156748
v 0.155000 0.007988 -0.156748
v 0.158680 0.007185 -0.156748
v 0.158680 0.007988 -0.159282
v 0.155000 0.020000 -0.174896
v 0.158680 0.017793 -0.174896
v 0.155000 0.017793 -0.177629
v -0.158679 0.017793 -0.174896
v -0.155000 0.020000 -0.174896
v -0.155000 0.017793 -0.177629
v -0.155000 0.017793 -0.156748
v -0.155000 0.020000 -0.159282
v -0.158679 0.017793 -0.159282
v 0.158680 0.017793 -0.159282
v 0.155000 0.020000 -0.159282
v 0.155000 0.017793 -0.156748
v -0.155000 0.007988 -0.156748
v -0.155000 0.007988 -0.021194
v -0.090615 0.007988 -0.156748
v -0.090615 0.007988 -0.146169
v -0.090615 0.007988 -0.007517
v -0.090615 0.007988 -0.031145
v -0.138958 0.007988 -0.007517
v -0.090615 0.007988 -0.031145
v -0.090615 0.007988 -0.007517
v 0.090615 0.007988 -0.031145
v 0.000000 0.007988 -0.007517
v 0.090615 0.007988 -0.007517
v -0.141400 0.007185 -0.002371
v -0.138958 0.007988 -0.007517
v -0.158680 0.007185 -0.016047
v -0.155000 0.007988 -0.021194
v -0.141400 -0.004647 -0.002371
v -0.141400 0.007185 -0.002371
v -0.158680 -0.004647 -0.016047
v -0.158680 0.007185 -0.016047
v 0.000000 -0.004647 -0.002371
v 0.000000 0.007185 -0.002371
v -0.141400 -0.004647 -0.002371
v -0.141400 0.007185 -0.002371
v -0.141400 0.007185 -0.002371
v 0.000000 0.007185 -0.002371
v -0.138958 0.007988 -0.007517
v -0.090615 0.007988 -0.007517
v 0.000000 0.007988 -0.007517
v 0.141400 0.007185 -0.002371
v 0.138958 0.007988 -0.007517
v 0.090615 0.007988 -0.007517
v 0.141400 -0.004647 -0.002371
v 0.141400 0.007185 -0.002371
v 0.157457 -0.005524 -0.177629
v 0.157457 0.007988 -0.177629
v 0.158680 -0.004647 -0.174896
v 0.158680 0.007988 -0.174896
v -0.157457 -0.005524 -0.177629
v -0.158679 -0.004647 -0.174896
v -0.157457 0.007988 -0.177629
v -0.158679 0.007185 -0.174896
v 0.158680 0.017793 -0.174896
v 0.155000 0.017793 -0.177629
v -0.158679 0.008791 -0.174896
v -0.155000 0.017793 -0.177629
v -0.158679 0.017793 -0.174896
v -0.158679 0.008791 -0.174896
v -0.142428 0.061547 -0.340715
v 0.142428 0.061547 -0.340715
v -0.142428 0.052289 -0.343191
v 0.142428 0.052289 -0.343191
v -0.158679 0.018431 -0.179450
v -0.158679 0.058190 -0.328157
v -0.158679 0.009172 -0.181925
v -0.158679 0.048931 -0.330632
v 0.158680 0.009172 -0.181925
v 0.158680 0.048931 -0.330632
v 0.158680 0.018431 -0.179450
v 0.158680 0.058190 -0.328157
v 0.158680 0.048931 -0.330632
v 0.158680 0.058190 -0.328157
v -0.158679 0.048931 -0.330632
v -0.158679 0.058190 -0.328157
v -0.155971 0.006556 -0.182625
v -0.155971 0.046025 -0.330248
v -0.105800 0.006556 -0.182625
v 0.155971 0.006556 -0.182624
v 0.105800 0.006556 -0.182624
v 0.155971 0.046025 -0.330248
v -0.141401 0.048973 -0.341274
v 0.141401 0.048973 -0.341274
v 0.104984 0.053537 -0.314983
v 0.155971 0.053537 -0.314983
v 0.104760 0.059793 -0.338381
v 0.155971 0.056845 -0.327355
v 0.141401 0.059793 -0.338381
v 0.158680 0.009172 -0.181925
v 0.158680 0.048931 -0.330632
v 0.142428 0.052289 -0.343191
v -0.158679 0.009172 -0.181925
v -0.158679 0.048931 -0.330632
v -0.142428 0.052289 -0.343191
v 0.158680 0.058190 -0.328157
v 0.158680 0.018431 -0.179450
v 0.155971 0.017376 -0.179732
v 0.142428 0.061547 -0.340715
v -0.142428 0.061547 -0.340715
v -0.141401 0.059793 -0.338381
v -0.104760 0.059793 -0.338381
v -0.155971 0.056845 -0.327355
v -0.158679 0.058190 -0.328157
v -0.155971 0.053537 -0.314983
v -0.158679 0.018431 -0.179450
v -0.155971 0.017376 -0.179732
v 0.105766 0.018996 -0.185791
v 0.105800 0.017376 -0.179732
v -0.104984 0.053537 -0.314983
v -0.105766 0.018996 -0.185791
v -0.105800 0.017376 -0.179732
v 0.105800 0.013304 -0.164502
v -0.105800 0.013304 -0.164502
v 0.105800 0.002484 -0.167395
v -0.105800 0.002484 -0.167395
v 0.158680 0.018431 -0.179450
v 0.155971 0.017376 -0.179732
v 0.158680 0.009172 -0.181925
v 0.105800 0.017376 -0.179732
v 0.155971 0.006556 -0.182624
v 0.105800 0.006556 -0.182624
v -0.158679 0.018431 -0.179450
v -0.158679 0.009172 -0.181925
v -0.155971 0.017376 -0.179732
v -0.105800 0.017376 -0.179732
v -0.155971 0.006556 -0.182625
v -0.105800 0.006556 -0.182625
vt 0.4006 0.0000
vt 0.4006 0.0331
vt 0.3598 0.0000
vt 0.3598 0.0331
vt 0.8898 0.5522
vt 0.8898 0.6076
vt 0.9436 0.5522
vt 0.9467 0.5553
vt 0.9467 0.6076
vt -0.1137 0.5488
vt -0.1137 0.1614
vt -0.0597 0.5488
vt -0.0597 0.1614
vt 0.8898 0.1575
vt 0.9436 0.1575
vt 0.7369 0.9725
vt 0.7182 0.9725
vt 0.7369 0.6484
vt 0.7182 0.6484
vt 0.7972 0.0091
vt 0.8325 0.0091
vt 0.7972 0.6054
vt 0.8325 0.6054
vt -0.0597 0.6044
vt -0.1137 0.6044
vt 0.7391 0.1375
vt 0.7200 0.1375
vt 0.7391 0.0146
vt 0.4483 0.0146
vt 0.4303 0.1375
vt 0.4303 0.0501
vt 0.4818 0.1375
vt 0.8764 0.6484
vt 0.8764 0.9725
vt 0.9745 0.6076
vt 0.9745 0.5553
vt 0.7638 0.6054
vt 0.7638 0.0091
vt -0.0535 0.5519
vt -0.0286 0.5519
vt -0.0535 0.6044
vt -0.0286 0.6044
vt 0.7396 0.0091
vt 0.7536 0.0091
vt 0.7396 0.1357
vt 0.7536 0.6054
vt 0.7396 0.4642
vt 0.7396 0.6054
vt 0.7752 0.6054
vt 0.7570 0.6054
vt 0.7752 0.0091
vt 0.7570 0.0091
vt 0.7145 0.6522
vt 0.7145 0.6509
vt 0.7385 0.6522
vt 0.7385 0.6509
vt 0.8325 0.0091
vt 0.8344 0.0091
vt 0.8325 0.6054
vt 0.8344 0.6054
vt 0.7145 0.9724
vt 0.7145 0.9711
vt 0.7385 0.9724
vt 0.7385 0.9711
vt 0.4390 0.0079
vt 0.7391 0.0079
vt 0.4483 0.0146
vt 0.7391 0.0146
vt 0.4483 0.0146
vt 0.4303 0.0501
vt 0.4390 0.0079
vt 0.4210 0.0456
vt 0.4390 0.5882
vt 0.4483 0.5815
vt 0.7391 0.5882
vt 0.7391 0.5815
vt 0.8898 0.1575
vt 0.8867 0.1606
vt 0.8898 0.5522
vt 0.8867 0.5522
vt 0.8764 0.6484
vt 0.8817 0.6472
vt 0.8764 0.9725
vt 0.8958 0.6649
vt 0.8958 0.8104
vt 0.8817 0.9737
vt 0.8958 0.9559
vt -0.1137 0.1614
vt -0.1137 0.5488
vt -0.1168 0.1645
vt -0.1168 0.5488
vt -0.0566 0.6016
vt -0.0566 0.5517
vt -0.0566 0.5488
vt -0.0286 0.5488
vt -0.0535 0.5519
vt -0.0286 0.5519
vt 0.7396 0.0091
vt 0.7396 0.0068
vt 0.7536 0.0091
vt 0.7536 0.0068
vt 0.7752 0.0068
vt 0.7752 0.0091
vt 0.7570 0.0068
vt 0.7570 0.0091
vt 0.7752 0.0091
vt 0.7770 0.0091
vt 0.7752 0.6054
vt 0.7770 0.6054
vt 0.7752 0.6054
vt 0.7752 0.6077
vt 0.7570 0.6054
vt 0.7570 0.6077
vt 0.7570 0.6054
vt 0.7552 0.6054
vt 0.7570 0.0091
vt 0.7552 0.0091
vt 0.8325 0.0068
vt 0.8344 0.0091
vt 0.8325 0.0091
vt 0.8344 0.6054
vt 0.8325 0.6077
vt 0.8325 0.6054
vt -0.0566 0.5517
vt -0.0597 0.5488
vt -0.0566 0.5488
vt 0.9467 0.5522
vt 0.9436 0.5522
vt 0.9467 0.5553
vt 0.7752 0.0091
vt 0.7752 0.0068
vt 0.7770 0.0091
vt 0.7752 0.6077
vt 0.7752 0.6054
vt 0.7770 0.6054
vt 0.7552 0.6054
vt 0.7570 0.6054
vt 0.7570 0.6077
vt 0.7570 0.0068
vt 0.7570 0.0091
vt 0.7552 0.0091
vt 0.7391 0.5815
vt 0.4483 0.5815
vt 0.7391 0.4651
vt 0.7200 0.4651
vt 0.4303 0.4651
vt 0.4818 0.4651
vt 0.4303 0.5525
vt 0.4818 0.4642
vt 0.4306 0.4642
vt 0.4818 0.1357
vt 0.4306 0.3000
vt 0.4306 0.1357
vt 0.4210 0.5570
vt 0.4303 0.5525
vt 0.4390 0.5882
vt 0.4483 0.5815
vt 0.3598 0.5615
vt 0.4006 0.5615
vt 0.3598 0.5945
vt 0.4006 0.5945
vt 0.3598 0.2973
vt 0.4006 0.2973
vt 0.3598 0.5615
vt 0.4006 0.5615
vt 0.4210 0.5570
vt 0.4210 0.3013
vt 0.4303 0.5525
vt 0.4303 0.4651
vt 0.4303 0.3013
vt 0.4210 0.0456
vt 0.4303 0.0501
vt 0.4303 0.1375
vt 0.3598 0.0331
vt 0.4006 0.0331
vt 0.8325 0.0091
vt 0.7972 0.0091
vt 0.8325 0.0068
vt 0.7972 0.0068
vt 0.8325 0.6054
vt 0.8325 0.6077
vt 0.7972 0.6054
vt 0.7992 0.6077
vt 0.7638 0.0068
vt 0.7638 0.0091
vt 0.7935 0.6077
vt 0.7638 0.6054
vt 0.7638 0.6077
vt 0.7972 0.6077
vt 0.9518 0.5597
vt 0.9518 0.9641
vt 0.9428 0.5430
vt 0.9428 0.9803
vt 0.9649 0.6582
vt 0.9649 0.9563
vt 0.9403 0.6315
vt 0.9403 0.9859
vt 0.9769 0.6562
vt 0.9769 0.9859
vt 0.9532 0.6582
vt 0.9532 0.9563
vt 0.9428 0.9848
vt 0.9518 0.9684
vt 0.9428 0.5282
vt 0.9518 0.5555
vt 0.3068 0.5823
vt 0.0281 0.5823
vt 0.3068 0.4908
vt 0.3068 0.0134
vt 0.3068 0.1049
vt 0.0281 0.0134
vt 0.0073 0.5557
vt 0.0073 0.0400
vt 0.5633 0.9362
vt 0.6785 0.9362
vt 0.5628 0.9940
vt 0.6785 0.9693
vt 0.6471 0.9940
vt 0.3068 0.0085
vt 0.0261 0.0085
vt 0.0024 0.0381
vt 0.3068 0.5872
vt 0.0261 0.5872
vt 0.0024 0.5576
vt 0.6844 0.9717
vt 0.6844 0.6465
vt 0.6785 0.6465
vt 0.6493 0.9998
vt 0.0348 0.9998
vt 0.0370 0.9940
vt 0.1213 0.9940
vt 0.0055 0.9693
vt -0.0003 0.9717
vt 0.0055 0.9362
vt -0.0003 0.6465
vt 0.0055 0.6465
vt 0.5649 0.6711
vt 0.5651 0.6465
vt 0.1208 0.9362
vt 0.1192 0.6711
vt 0.1190 0.6465
vt 0.9413 0.9168
vt 0.9413 0.6868
vt 0.9535 0.9289
vt 0.9535 0.6746
vt 0.9401 0.9743
vt 0.9413 0.9713
vt 0.9506 0.9743
vt 0.9413 0.9168
vt 0.9535 0.9713
vt 0.9535 0.9289
vt 0.9401 0.6293
vt 0.9506 0.6293
vt 0.9413 0.6323
vt 0.9413 0.6868
vt 0.9535 0.6323
vt 0.9535 0.6746
vn 0.6206 0.0000 0.7841
vn 1.0000 0.0000 0.0000
vn -1.0000 0.0000 -0.0000
vn 0.0000 -1.0000 -0.0000
vn 0.0000 0.0000 -1.0000
vn 0.0000 1.0000 0.0000
vn 0.0000 0.0000 1.0000
vn 0.9224 -0.3862 -0.0000
vn 0.0000 -0.8008 -0.5989
vn -0.9225 -0.3859 -0.0000
vn 0.2132 0.9770 0.0000
vn 0.0820 0.9920 0.0962
vn 0.0889 0.9897 0.1123
vn -0.2132 0.9770 -0.0000
vn -0.0000 -0.8697 0.4936
vn 0.0091 -0.9999 0.0114
vn 0.0000 -0.9882 0.1533
vn -0.0419 -0.8732 0.4856
vn -0.9224 -0.3862 -0.0000
vn -0.5672 0.0000 0.8236
vn 0.5671 0.0000 0.8236
vn 0.5143 0.8576 0.0000
vn 0.0000 0.7780 -0.6283
vn -0.5144 0.8575 0.0000
vn 0.0000 0.7541 0.6568
vn 0.8862 -0.3710 -0.2775
vn -0.8863 -0.3708 -0.2773
vn -0.1813 0.8307 0.5264
vn 0.2037 0.9333 0.2958
vn 0.4228 0.7050 -0.5693
vn -0.4229 0.7050 -0.5693
vn -0.4122 0.6871 0.5984
vn 0.4121 0.6871 0.5984
vn -0.0889 0.9897 0.1123
vn -0.0820 0.9920 0.0962
vn -0.6206 0.0000 0.7841
vn 0.0000 0.9880 0.1542
vn 0.9127 0.0000 -0.4085
vn 0.8828 0.0207 -0.4692
vn -0.9129 0.0000 -0.4082
vn -0.8980 0.0951 -0.4295
vn 0.6630 0.1231 -0.7384
vn 0.5896 0.1477 -0.7940
vn -0.8175 0.1667 -0.5513
vn -0.6693 0.0485 -0.7414
vn -0.5963 0.0000 -0.8027
vn -0.3310 0.2438 -0.9116
vn 0.3309 0.2438 -0.9116
vn 0.6246 0.2016 -0.7544
vn 0.6246 0.2017 -0.7544
vn -0.6246 0.2017 -0.7544
vn -0.6246 0.2016 -0.7544
vn -0.3827 -0.8925 -0.2386
vn -0.4002 -0.8120 -0.4247
vn 0.0000 -0.9661 -0.2583
vn 0.3825 -0.8926 -0.2386
vn 0.4001 -0.8121 -0.4247
vn -0.1380 -0.7667 -0.6270
vn 0.1380 -0.7667 -0.6270
vn 0.0000 0.9661 0.2583
vn -0.1905 0.9484 0.2535
vn 0.0000 0.8992 0.4375
vn -0.2012 0.9146 0.3507
vn -0.0686 0.8906 0.4496
vn 0.7069 -0.6832 -0.1827
vn 0.6144 -0.6347 -0.4686
vn 0.2263 -0.5369 -0.8127
vn -0.7071 -0.6831 -0.1826
vn -0.6145 -0.6346 -0.4686
vn -0.2263 -0.5369 -0.8127
vn -0.3164 0.8669 0.3851
vn -0.3739 0.8960 0.2395
vn -0.1904 0.9484 0.2535
vn -0.1172 0.8172 0.5643
vn 0.1172 0.8172 0.5643
vn 0.0686 0.8906 0.4496
vn 0.2013 0.9145 0.3508
vn 0.3165 0.8669 0.3851
vn 0.1905 0.9484 0.2535
vn 0.3740 0.8959 0.2395
vn 0.5773 0.4086 0.7069
vn -0.5773 0.4086 0.7069
vn 0.5773 -0.7069 0.4086
vn -0.5773 -0.7069 0.4086
vn 0.0000 -0.2582 0.9661
vn 0.5774 -0.7068 0.4086
vn 0.0000 -0.2583 0.9660
vn 0.0000 -0.2584 0.9660
usemtl mtThreeDSt
s off
f 1/1/1 2/2/1 3/3/1
f 3/3/1 2/2/1 4/4/1
f 5/5/2 6/6/2 7/7/2
f 7/7/2 6/6/2 8/8/2
f 6/6/2 9/9/2 8/8/2
f 10/10/3 11/11/3 12/12/3
f 12/12/3 11/11/3 13/13/3
f 14/14/2 5/5/2 15/15/2
f 15/15/2 5/5/2 7/7/2
f 16/16/4 17/17/4 18/18/4
f 18/18/4 17/17/4 19/19/4
f 20/20/5 21/21/5 22/22/5
f 22/22/5 21/21/5 23/23/5
f 12/12/3 24/24/3 10/10/3
f 10/10/3 24/24/3 25/25/3
f 26/26/6 27/27/6 28/28/6
f 28/28/6 27/27/6 29/29/6
f 30/30/6 31/31/6 32/32/6
f 29/29/6 27/27/6 31/31/6
f 27/27/6 32/32/6 31/31/6
f 18/18/4 33/33/4 16/16/4
f 16/16/4 33/33/4 34/34/4
f 9/9/2 35/35/2 8/8/2
f 8/8/2 35/35/2 36/36/2
f 22/22/5 37/37/5 20/20/5
f 20/20/5 37/37/5 38/38/5
f 39/39/3 40/40/3 41/41/3
f 41/41/3 40/40/3 42/42/3
f 43/43/7 44/44/7 45/45/7
f 44/44/7 46/46/7 45/45/7
f 45/45/7 46/46/7 47/47/7
f 46/46/7 48/48/7 47/47/7
f 49/49/6 50/50/6 51/51/6
f 51/51/6 50/50/6 52/52/6
f 53/53/8 54/54/8 55/55/8
f 55/55/8 54/54/8 56/56/8
f 57/57/9 58/58/9 59/59/9
f 59/59/9 58/58/9 60/60/9
f 61/61/10 62/62/10 63/63/10
f 63/63/10 62/62/10 64/64/10
f 65/65/11 66/66/11 67/67/11
f 67/67/11 66/66/11 68/68/11
f 69/69/12 70/70/12 71/71/12
f 71/71/13 70/70/13 72/72/13
f 73/73/14 74/74/14 75/75/14
f 75/75/14 74/74/14 76/76/14
f 77/77/8 78/78/8 79/79/8
f 79/79/8 78/78/8 80/80/8
f 81/81/15 82/82/15 83/83/15
f 82/82/16 84/84/16 83/83/16
f 84/84/17 85/85/17 83/83/17
f 83/83/18 85/85/18 86/86/18
f 85/85/4 87/87/4 86/86/4
f 88/88/19 89/89/19 90/90/19
f 90/90/10 89/89/10 91/91/10
f 92/92/3 24/24/3 93/93/3
f 93/93/3 24/24/3 12/12/3
f 94/94/20 95/95/20 96/96/20
f 96/96/20 95/95/20 97/97/20
f 98/98/21 99/99/21 100/100/21
f 100/100/21 99/99/21 101/101/21
f 102/102/22 103/103/22 104/104/22
f 104/104/22 103/103/22 105/105/22
f 106/106/23 107/107/23 108/108/23
f 108/108/23 107/107/23 109/109/23
f 110/110/24 111/111/24 112/112/24
f 112/112/24 111/111/24 113/113/24
f 114/114/25 115/115/25 116/116/25
f 116/116/25 115/115/25 117/117/25
f 118/118/26 119/119/26 120/120/26
f 121/121/27 122/122/27 123/123/27
f 124/124/28 125/125/28 126/126/28
f 127/127/29 128/128/29 129/129/29
f 130/130/30 131/131/30 132/132/30
f 133/133/31 134/134/31 135/135/31
f 136/136/32 137/137/32 138/138/32
f 139/139/33 140/140/33 141/141/33
f 142/142/6 143/143/6 144/144/6
f 144/144/6 143/143/6 145/145/6
f 146/146/6 147/147/6 148/148/6
f 143/143/6 148/148/6 145/145/6
f 148/148/6 147/147/6 145/145/6
f 144/144/6 145/145/6 26/26/6
f 26/26/6 145/145/6 27/27/6
f 149/149/6 150/150/6 151/151/6
f 150/150/6 152/152/6 151/151/6
f 152/152/6 153/153/6 151/151/6
f 154/154/34 155/155/34 156/156/34
f 156/156/35 155/155/35 157/157/35
f 158/158/36 159/159/36 160/160/36
f 160/160/36 159/159/36 161/161/36
f 162/162/7 163/163/7 164/164/7
f 164/164/7 163/163/7 165/165/7
f 166/166/37 167/167/37 168/168/37
f 168/168/37 167/167/37 169/169/37
f 167/167/37 170/170/37 169/169/37
f 171/171/37 172/172/37 167/167/37
f 172/172/37 173/173/37 167/167/37
f 173/173/37 170/170/37 167/167/37
f 174/174/7 175/175/7 162/162/7
f 162/162/7 175/175/7 163/163/7
s 1
f 176/176/38 177/177/39 178/178/38
f 178/178/38 177/177/39 179/179/38
f 180/180/40 181/181/40 182/182/41
f 182/182/41 181/181/40 183/183/40
f 179/179/38 177/177/39 184/184/42
f 184/184/42 177/177/39 185/185/43
f 182/182/41 186/186/44 187/187/45
f 187/187/45 186/186/44 188/188/46
f 189/189/40 182/182/41 183/183/40
f 190/190/47 191/191/48 192/192/47
f 192/192/47 191/191/48 193/193/48
f 194/194/3 195/195/3 196/196/3
f 196/196/3 195/195/3 197/197/3
f 198/198/2 199/199/2 200/200/2
f 200/200/2 199/199/2 201/201/2
f 202/202/49 193/193/48 203/203/50
f 203/203/50 193/193/48 191/191/48
f 192/192/47 204/204/51 190/190/47
f 190/190/47 204/204/51 205/205/52
f 206/206/53 207/207/54 208/208/55
f 209/209/56 210/210/55 211/211/57
f 207/207/54 212/212/58 208/208/55
f 211/211/57 210/210/55 213/213/59
f 212/212/58 213/213/59 208/208/55
f 213/213/59 210/210/55 208/208/55
f 214/214/60 215/215/61 216/216/62
f 215/215/61 217/217/63 216/216/62
f 217/217/63 218/218/64 216/216/62
f 209/209/56 211/211/57 219/219/65
f 219/219/65 211/211/57 220/220/66
f 220/220/66 211/211/57 221/221/67
f 221/221/67 211/211/57 213/213/59
f 206/206/53 222/222/68 207/207/54
f 207/207/54 222/222/68 223/223/69
f 223/223/69 224/224/70 207/207/54
f 207/207/54 224/224/70 212/212/58
f 221/221/67 213/213/59 224/224/70
f 224/224/70 213/213/59 212/212/58
f 217/217/63 215/215/61 225/225/71
f 225/225/71 215/215/61 226/226/72
f 227/227/73 226/226/72 215/215/61
f 225/225/71 228/228/74 217/217/63
f 217/217/63 228/228/74 218/218/64
f 218/218/64 228/228/74 216/216/62
f 228/228/74 229/229/75 216/216/62
f 230/230/76 231/231/62 229/229/75
f 229/229/75 231/231/62 216/216/62
f 230/230/76 229/229/75 232/232/77
f 232/232/77 229/229/75 233/233/78
f 232/232/77 233/233/78 234/234/79
f 233/233/78 235/235/80 234/234/79
f 235/235/80 236/236/79 234/234/79
f 214/214/60 237/237/60 215/215/61
f 238/238/60 227/227/73 237/237/60
f 227/227/73 215/215/61 237/237/60
f 239/239/60 231/231/62 234/234/79
f 234/234/79 231/231/62 232/232/77
f 231/231/62 230/230/76 232/232/77
f 239/239/60 234/234/79 240/240/60
f 241/241/60 240/240/60 236/236/79
f 240/240/60 234/234/79 236/236/79
f 214/214/60 216/216/62 239/239/60
f 239/239/60 216/216/62 231/231/62
f 238/238/60 237/237/60 241/241/60
f 241/241/60 237/237/60 240/240/60
f 242/242/81 243/243/82 244/244/83
f 244/244/83 243/243/82 245/245/84
f 246/246/85 247/247/85 248/248/85
f 247/247/85 249/249/81 248/248/85
f 248/248/85 249/249/81 250/250/85
f 251/251/86 250/250/85 249/249/81
f 252/252/85 253/253/87 254/254/85
f 254/254/85 253/253/87 255/255/82
f 253/253/87 256/256/88 255/255/82
f 256/256/88 257/257/84 255/255/82
f 249/249/81 255/255/82 242/242/81
f 242/242/81 255/255/82 243/243/82
f 255/255/82 257/257/84 243/243/82
f 243/243/82 257/257/84 245/245/84
f 257/257/84 251/251/86 245/245/84
f 245/245/84 251/251/86 244/244/83
f 251/251/86 249/249/81 244/244/83
f 244/244/83 249/249/81 242/242/81
o threeDS.002_ID33
v 0.105766 0.018996 -0.185791
v 0.104984 0.053537 -0.314983
v -0.105766 0.018996 -0.185791
v -0.104984 0.053537 -0.314983
vt 0.8750 0.0000
vt 0.8750 1.0000
vt 0.1250 0.0000
vt 0.1250 1.0000
vn 0.0000 0.9661 0.2583
usemtl mtThreeDSScreen00t
s off
f 258/258/89 259/259/89 260/260/89
f 260/260/89 259/259/89 261/261/89
o threeDS.001_ID25
v -0.090615 0.007988 -0.146169
v -0.090615 0.007988 -0.031145
v 0.090615 0.007988 -0.146169
v 0.090615 0.007988 -0.031145
vt -1.0000 1.0000
vt -1.0000 0.0000
vt 0.0000 1.0000
vt 0.0000 0.0000
vn 0.0000 1.0000 0.0000
usemtl mtThreeDSScreen02t
s off
f 262/262/90 263/263/90 264/264/90
f 264/264/90 263/263/90 265/265/90
